# File created by Blade
# Date/Time:  Tue Jan 27 19:32:46 2015
#---------------------------------------------------------
:version 1.10
:name HOM
:units
  mass 1.0
  length 1.000000
  angle deg
:documentation
     Acclaim Skeleton File
:root
   axis xyz
   order TX TY TZ RX RY RZ
   position 0.000000 0.000000 0.000000
   orientation 0 0 0
:bonedata
   begin
      id 1
      name Spine_dum
      direction 0.000000 1.000000 0.000000
      length 6.116652
      axis 0.0 0.0 0.0 xyz
   end
   begin
      id 2
      name LeftUpLeg_dum
      direction 1.000000 0.000000 0.000000
      length 4.711765
      axis 0.0 0.0 0.0 xyz
   end
   begin
      id 3
      name RightUpLeg_dum
      direction -1.000000 0.000000 0.000000
      length 4.711765
      axis 0.0 0.0 0.0 xyz
   end
   begin
      id 4
      name Spine
      direction 0.000000 1.000000 0.000000
      length 0.000000
      axis 0.0 0.0 0.0 xyz
      dof rx ry rz
   end
   begin
      id 5
      name Spine_dum1
      direction 0.000000 1.000000 0.000000
      length 15.225563
      axis 0.0 0.0 0.0 xyz
   end
   begin
      id 6
      name Spine_dum2
      direction 0.000000 1.000000 0.000000
      length 8.977654
      axis 0.0 0.0 0.0 xyz
   end
   begin
      id 7
      name Spine_dum3
      direction 0.000000 1.000000 0.000000
      length 8.977654
      axis 0.0 0.0 0.0 xyz
   end
   begin
      id 8
      name Head
      direction 0.000000 1.000000 0.000000
      length 4.527550
      axis 0.0 0.0 0.0 xyz
      dof rx ry rz
   end
   begin
      id 9
      name LeftShoulder
      direction 1.000000 0.000000 0.000000
      length 7.110130
      axis 0.0 0.0 -90.0 xyz
      dof rx ry rz
   end
   begin
      id 10
      name LeftArm
      direction 1.000000 0.000000 0.000000
      length 10.398341
      axis 0.0 0.0 -90.0 xyz
      dof rx ry rz
   end
   begin
      id 11
      name LeftForeArm
      direction 1.000000 0.000000 0.000000
      length 8.888997
      axis 0.0 0.0 -90.0 xyz
      dof ry rz rx
   end
   begin
      id 12
      name LeftHand
      direction 0.000000 0.000000 0.000000
      length 0.000000
      axis 0.0 0.0 -90.0 xyz
      dof rx ry rz
   end
   begin
      id 13
      name LeftHand_dum1
      direction 0.000000 0.000000 0.000000
      length 0.000000
      axis 0.0 0.0 -90.0 xyz
   end
   begin
      id 14
      name LeftHand_dum2
      direction 1.000000 0.000000 0.000000
      length 3.937000
      axis 0.0 0.0 -90.0 xyz
   end
   begin
      id 15
      name LeftHandThumb1
      direction 0.000000 0.000000 1.000000
      length 3.937000
      axis 0.0 0.0 -90.0 xyz
      dof rx rz ry
   end
   begin
      id 16
      name RightShoulder
      direction -1.000000 0.000000 0.000000
      length 7.110130
      axis 0.0 0.0 90.0 xyz
      dof rx ry rz
   end
   begin
      id 17
      name RightArm
      direction -1.000000 0.000000 0.000000
      length 10.398341
      axis 0.0 0.0 90.0 xyz
      dof rx ry rz
   end
   begin
      id 18
      name RightForeArm
      direction -1.000000 0.000000 0.000000
      length 8.888997
      axis 0.0 0.0 90.0 xyz
      dof ry rz rx
   end
   begin
      id 19
      name RightHand
      direction 0.000000 0.000000 0.000000
      length 0.000000
      axis 0.0 0.0 90.0 xyz
      dof rx ry rz
   end
   begin
      id 20
      name RightHand_dum1
      direction 0.000000 0.000000 0.000000
      length 0.000000
      axis 0.0 0.0 90.0 xyz
   end
   begin
      id 21
      name RightHand_dum2
      direction -1.000000 0.000000 0.000000
      length 3.937000
      axis 0.0 0.0 90.0 xyz
   end
   begin
      id 22
      name RightHandThumb1
      direction 0.000000 0.000000 1.000000
      length 3.937000
      axis 0.0 0.0 90.0 xyz
      dof rx rz ry
   end
   begin
      id 23
      name LeftUpLeg
      direction 0.000000 -1.000000 0.000000
      length 15.510451
      axis 0.0 0.0 0.0 xyz
      dof rx ry rz
   end
   begin
      id 24
      name LeftLeg
      direction 0.000000 -1.000000 0.000000
      length 14.858061
      axis 0.0 0.0 0.0 xyz
      dof rx ry rz
   end
   begin
      id 25
      name LeftFoot
      direction 0.000000 -0.258819 0.965926
      length 5.128852
      axis 15.0 0.0 0.0 xyz
      dof rx ry rz
   end
   begin
      id 26
      name LeftToeBase
      direction 0.000000 0.000000 1.000000
      length 2.952750
      axis 0.0 0.0 0.0 xyz
      dof rx ry rz
   end
   begin
      id 27
      name RightUpLeg
      direction 0.000000 -1.000000 0.000000
      length 15.510451
      axis 0.0 0.0 0.0 xyz
      dof rx ry rz
   end
   begin
      id 28
      name RightLeg
      direction 0.000000 -1.000000 0.000000
      length 14.858061
      axis 0.0 0.0 0.0 xyz
      dof rx ry rz
   end
   begin
      id 29
      name RightFoot
      direction 0.000000 -0.258819 0.965926
      length 5.128852
      axis 15.0 0.0 0.0 xyz
      dof rx ry rz
   end
   begin
      id 30
      name RightToeBase
      direction 0.000000 0.000000 1.000000
      length 2.952750
      axis 0.0 0.0 0.0 xyz
      dof rx ry rz
   end
:hierarchy
   begin
      root Spine_dum LeftUpLeg_dum RightUpLeg_dum
      Spine_dum Spine
      LeftUpLeg_dum LeftUpLeg
      RightUpLeg_dum RightUpLeg
      Spine Spine_dum1 Spine_dum2 Spine_dum3
      Spine_dum1 Head
      Spine_dum2 LeftShoulder
      Spine_dum3 RightShoulder
      LeftShoulder LeftArm
      LeftArm LeftForeArm
      LeftForeArm LeftHand
      LeftHand LeftHand_dum1 LeftHand_dum2
      LeftHand_dum1 LeftHandThumb1
      RightShoulder RightArm
      RightArm RightForeArm
      RightForeArm RightHand
      RightHand RightHand_dum1 RightHand_dum2
      RightHand_dum1 RightHandThumb1
      LeftUpLeg LeftLeg
      LeftLeg LeftFoot
      LeftFoot LeftToeBase
      RightUpLeg RightLeg
      RightLeg RightFoot
      RightFoot RightToeBase
   end

# File created by Blade
# Date/Time:  Tue Jan 27 19:32:37 2015
# Frame Rate: 120.000 fps
#------------------------------------------------------
:FULLY-SPECIFIED
:DEGREES
522
root 4.595398 32.242110 -0.550726 -5.110078 15.035183 1.525836
Spine 3.254738 29.339666 2.331278
Head 4.214705 -19.958631 7.387161
LeftShoulder 2.910750 -14.739121 24.542688
LeftArm -0.149091 51.028248 -104.251830
LeftForeArm 2.167030 -0.000000 9.745862
LeftHand 10.260346 -0.000000 -7.342226
LeftHandThumb1 -26.253704 0.000000 33.147579
RightShoulder 5.368645 17.455157 -31.506965
RightArm 42.164971 -19.036826 115.059170
RightForeArm 5.915734 -0.000000 117.103222
RightHand 25.922694 -0.000000 -10.036776
RightHandThumb1 -24.326973 -0.000000 -32.862282
LeftUpLeg 9.613492 -8.676207 -4.847559
LeftLeg 2.823050 -0.000000 -0.000000
LeftFoot -17.543585 15.245613 -20.440803
LeftToeBase 16.627806 -0.000000 -0.000000
RightUpLeg 13.783670 -20.845162 -3.564701
RightLeg -1.191094 -0.000000 0.000000
RightFoot -14.262227 -14.624162 16.296142
RightToeBase 9.946674 -0.000000 -0.000000
523
root 4.592529 32.242216 -0.551091 -5.105890 15.051337 1.528376
Spine 3.246208 29.330766 2.320420
Head 4.187118 -19.991706 7.407019
LeftShoulder 2.907006 -14.747029 24.551039
LeftArm -0.116652 51.027961 -104.233153
LeftForeArm 2.159909 0.000000 9.648130
LeftHand 10.201141 0.000000 -7.323628
LeftHandThumb1 -26.253704 0.000000 33.147579
RightShoulder 5.378118 17.486135 -31.493445
RightArm 42.189451 -19.084492 114.993534
RightForeArm 6.388064 0.000000 116.971720
RightHand 26.086731 -0.000000 -9.893533
RightHandThumb1 -24.326973 -0.000000 -32.862282
LeftUpLeg 9.615291 -8.701891 -4.847456
LeftLeg 2.806804 -0.000000 -0.000000
LeftFoot -17.537070 15.251042 -20.453626
LeftToeBase 16.569336 -0.000000 -0.000000
RightUpLeg 13.782004 -20.850179 -3.559353
RightLeg -1.195900 -0.000000 0.000000
RightFoot -14.254890 -14.649782 16.275974
RightToeBase 9.952013 -0.000000 -0.000000
524
root 4.589435 32.242368 -0.553993 -5.095151 15.080653 1.533022
Spine 3.245473 29.319254 2.311177
Head 4.133214 -20.041701 7.412577
LeftShoulder 2.913969 -14.778051 24.543171
LeftArm -0.090717 51.011792 -104.219296
LeftForeArm 2.210315 -0.000000 9.535341
LeftHand 10.103007 -0.000000 -7.062922
LeftHandThumb1 -26.253704 0.000000 33.147579
RightShoulder 5.378426 17.459653 -31.491659
RightArm 42.261927 -19.165772 114.906970
RightForeArm 6.898124 -0.000000 116.868530
RightHand 26.136272 -0.000000 -10.025119
RightHandThumb1 -24.326973 -0.000000 -32.862282
LeftUpLeg 9.598830 -8.743543 -4.850790
LeftLeg 2.802925 -0.000000 -0.000000
LeftFoot -17.529992 15.272173 -20.450259
LeftToeBase 16.649840 -0.000000 -0.000000
RightUpLeg 13.765625 -20.859572 -3.553826
RightLeg -1.184308 -0.000000 0.000000
RightFoot -14.278914 -14.658552 16.296606
RightToeBase 9.944753 -0.000000 -0.000000
525
root 4.586381 32.242445 -0.554527 -5.096622 15.104271 1.534665
Spine 3.250985 29.309301 2.306941
Head 4.089472 -20.092652 7.416649
LeftShoulder 2.914891 -14.776357 24.537722
LeftArm -0.038578 50.998323 -104.176633
LeftForeArm 2.236510 -0.000000 9.455477
LeftHand 10.054849 -0.000000 -7.058265
LeftHandThumb1 -26.253704 0.000000 33.147579
RightShoulder 5.377841 17.439667 -31.479320
RightArm 42.325110 -19.260536 114.810080
RightForeArm 7.315296 -0.000000 116.768129
RightHand 26.201111 0.000000 -10.074032
RightHandThumb1 -24.326973 -0.000000 -32.862282
LeftUpLeg 9.595582 -8.739809 -4.843392
LeftLeg 2.803259 -0.000000 -0.000000
LeftFoot -17.516099 15.239880 -20.458107
LeftToeBase 16.566240 -0.000000 -0.000000
RightUpLeg 13.770612 -20.870127 -3.551073
RightLeg -1.184931 -0.000000 0.000000
RightFoot -14.289674 -14.675361 16.298305
RightToeBase 9.996157 -0.000000 -0.000000
526
root 4.583909 32.242420 -0.555269 -5.097322 15.133042 1.536537
Spine 3.257827 29.296952 2.308377
Head 4.055533 -20.131366 7.395045
LeftShoulder 2.921338 -14.786463 24.513560
LeftArm -0.015927 50.946052 -104.141704
LeftForeArm 2.225860 -0.000000 9.402806
LeftHand 10.016916 -0.000000 -6.803811
LeftHandThumb1 -26.253704 0.000000 33.147579
RightShoulder 5.383345 17.419492 -31.468263
RightArm 42.372886 -19.355547 114.718206
RightForeArm 7.506377 -0.000000 116.698137
RightHand 26.138071 -0.000000 -9.980565
RightHandThumb1 -24.326973 -0.000000 -32.862282
LeftUpLeg 9.589670 -8.755766 -4.840458
LeftLeg 2.807243 -0.000000 -0.000000
LeftFoot -17.504320 15.236414 -20.449697
LeftToeBase 16.600912 -0.000000 -0.000000
RightUpLeg 13.776622 -20.867855 -3.550000
RightLeg -1.188826 -0.000000 0.000000
RightFoot -14.280850 -14.684168 16.296851
RightToeBase 9.945077 -0.000000 -0.000000
527
root 4.580747 32.242812 -0.556209 -5.096884 15.157261 1.540592
Spine 3.269168 29.280440 2.303434
Head 4.014803 -20.145565 7.375033
LeftShoulder 2.903251 -14.781189 24.498221
LeftArm 0.020471 50.921470 -104.098807
LeftForeArm 2.231077 -0.000000 9.362661
LeftHand 10.015942 -0.000000 -6.726389
LeftHandThumb1 -26.253704 0.000000 33.147579
RightShoulder 5.378569 17.386877 -31.466851
RightArm 42.416459 -19.447112 114.647850
RightForeArm 7.369422 0.000000 116.655270
RightHand 26.055130 -0.000000 -9.834067
RightHandThumb1 -24.326973 -0.000000 -32.862282
LeftUpLeg 9.586171 -8.775909 -4.839036
LeftLeg 2.804457 -0.000000 -0.000000
LeftFoot -17.497045 15.225520 -20.461878
LeftToeBase 16.542287 -0.000000 -0.000000
RightUpLeg 13.771716 -20.853202 -3.543380
RightLeg -1.178440 -0.000000 0.000000
RightFoot -14.303861 -14.709247 16.320365
RightToeBase 9.930159 -0.000000 -0.000000
528
root 4.577987 32.242913 -0.556720 -5.099949 15.182406 1.547911
Spine 3.283763 29.287326 2.296241
Head 3.975390 -20.176996 7.364070
LeftShoulder 2.908810 -14.772570 24.478743
LeftArm 0.064001 50.876177 -104.047596
LeftForeArm 2.256290 0.000000 9.340380
LeftHand 10.024085 -0.000000 -6.700546
LeftHandThumb1 -26.253704 0.000000 33.147579
RightShoulder 5.348626 17.335723 -31.479621
RightArm 42.453195 -19.515990 114.583678
RightForeArm 7.054748 -0.000000 116.620690
RightHand 25.974464 -0.000000 -9.457923
RightHandThumb1 -24.326973 -0.000000 -32.862282
LeftUpLeg 9.587286 -8.775538 -4.837774
LeftLeg 2.800615 -0.000000 -0.000000
LeftFoot -17.481097 15.195830 -20.474103
LeftToeBase 16.636941 -0.000000 -0.000000
RightUpLeg 13.777415 -20.856600 -3.545851
RightLeg -1.174740 -0.000000 0.000000
RightFoot -14.312315 -14.732236 16.308161
RightToeBase 9.912788 -0.000000 -0.000000
529
root 4.575951 32.242571 -0.557063 -5.102034 15.215892 1.552223
Spine 3.287643 29.266584 2.292471
Head 3.959929 -20.193406 7.344807
LeftShoulder 2.900090 -14.736372 24.464834
LeftArm 0.126969 50.839277 -103.986322
LeftForeArm 2.265548 0.000000 9.327464
LeftHand 10.051421 0.000000 -6.707984
LeftHandThumb1 -26.253704 0.000000 33.147579
RightShoulder 5.343647 17.294137 -31.502939
RightArm 42.482111 -19.570916 114.554378
RightForeArm 6.612928 -0.000000 116.581347
RightHand 25.931027 -0.000000 -9.190178
RightHandThumb1 -24.326973 -0.000000 -32.862282
LeftUpLeg 9.586164 -8.782648 -4.836229
LeftLeg 2.798504 -0.000000 -0.000000
LeftFoot -17.471325 15.174477 -20.469114
LeftToeBase 16.630318 -0.000000 -0.000000
RightUpLeg 13.782235 -20.882289 -3.553746
RightLeg -1.163292 -0.000000 0.000000
RightFoot -14.322503 -14.721972 16.316176
RightToeBase 9.902476 -0.000000 -0.000000
530
root 4.572401 32.242533 -0.557738 -5.097060 15.253819 1.555808
Spine 3.283873 29.253182 2.273886
Head 3.936066 -20.217432 7.335898
LeftShoulder 2.897125 -14.741324 24.458298
LeftArm 0.126625 50.798875 -103.972197
LeftForeArm 2.287039 -0.000000 9.343375
LeftHand 10.033976 -0.000000 -6.694632
LeftHandThumb1 -26.253704 0.000000 33.147579
RightShoulder 5.318969 17.232841 -31.511364
RightArm 42.544505 -19.673352 114.437852
RightForeArm 6.187456 -0.000000 116.531412
RightHand 25.902676 -0.000000 -9.121302
RightHandThumb1 -24.326973 -0.000000 -32.862282
LeftUpLeg 9.576842 -8.811084 -4.834193
LeftLeg 2.798028 -0.000000 -0.000000
LeftFoot -17.469375 15.161108 -20.474563
LeftToeBase 16.649970 -0.000000 -0.000000
RightUpLeg 13.775611 -20.901314 -3.550818
RightLeg -1.150177 -0.000000 0.000000
RightFoot -14.340089 -14.733913 16.317012
RightToeBase 9.905878 -0.000000 -0.000000
531
root 4.569456 32.242230 -0.558433 -5.102550 15.285951 1.556521
Spine 3.296034 29.231583 2.271710
Head 3.912633 -20.223193 7.315127
LeftShoulder 2.889517 -14.718320 24.459820
LeftArm 0.158947 50.761749 -103.948827
LeftForeArm 2.349580 -0.000000 9.351800
LeftHand 10.027224 -0.000000 -6.875289
LeftHandThumb1 -26.253704 0.000000 33.147579
RightShoulder 5.301439 17.196375 -31.523893
RightArm 42.611099 -19.799324 114.306514
RightForeArm 5.864189 -0.000000 116.441069
RightHand 25.867655 -0.000000 -8.909132
RightHandThumb1 -24.326973 -0.000000 -32.862282
LeftUpLeg 9.576194 -8.809646 -4.826800
LeftLeg 2.800161 -0.000000 -0.000000
LeftFoot -17.439985 15.143822 -20.430492
LeftToeBase 16.639950 -0.000000 -0.000000
RightUpLeg 13.776512 -20.917665 -3.549353
RightLeg -1.132135 -0.000000 0.000000
RightFoot -14.365025 -14.745065 16.328366
RightToeBase 9.967154 -0.000000 -0.000000
